<mxfile host="app.diagrams.net" agent="Mozilla/5.0 (Windows NT 10.0; Win64; x64) AppleWebKit/537.36 (KHTML, like Gecko) Chrome/130.0.0.0 Safari/537.36" version="24.8.3">
  <diagram name="Page-1" id="KTxAUgvPdfuoOStK3KRO">
    <mxGraphModel dx="6233" dy="6241" grid="1" gridSize="10" guides="1" tooltips="1" connect="1" arrows="1" fold="1" page="1" pageScale="1" pageWidth="3300" pageHeight="4681" math="0" shadow="0">
      <root>
        <mxCell id="0" />
        <mxCell id="1" parent="0" />
        <mxCell id="KnkK7DIoWYK5DNCra6GS-11" value="" style="rounded=0;whiteSpace=wrap;html=1;" vertex="1" parent="1">
          <mxGeometry x="-170" y="-79" width="1344" height="909" as="geometry" />
        </mxCell>
        <mxCell id="KnkK7DIoWYK5DNCra6GS-12" value="" style="whiteSpace=wrap;html=1;aspect=fixed;" vertex="1" parent="1">
          <mxGeometry x="245" y="7" width="755" height="755" as="geometry" />
        </mxCell>
        <mxCell id="KnkK7DIoWYK5DNCra6GS-13" style="edgeStyle=none;curved=1;rounded=0;orthogonalLoop=1;jettySize=auto;html=1;fontSize=12;startSize=8;endSize=8;" edge="1" parent="1" source="KnkK7DIoWYK5DNCra6GS-16" target="KnkK7DIoWYK5DNCra6GS-17">
          <mxGeometry relative="1" as="geometry" />
        </mxCell>
        <mxCell id="KnkK7DIoWYK5DNCra6GS-14" value="" style="edgeStyle=none;curved=1;rounded=0;orthogonalLoop=1;jettySize=auto;html=1;fontSize=12;startSize=8;endSize=8;" edge="1" parent="1" source="KnkK7DIoWYK5DNCra6GS-16" target="KnkK7DIoWYK5DNCra6GS-19">
          <mxGeometry relative="1" as="geometry" />
        </mxCell>
        <mxCell id="KnkK7DIoWYK5DNCra6GS-15" style="edgeStyle=none;curved=1;rounded=0;orthogonalLoop=1;jettySize=auto;html=1;entryX=0;entryY=0.5;entryDx=0;entryDy=0;fontSize=12;startSize=8;endSize=8;exitX=0.75;exitY=0.1;exitDx=0;exitDy=0;exitPerimeter=0;" edge="1" parent="1" source="KnkK7DIoWYK5DNCra6GS-17" target="KnkK7DIoWYK5DNCra6GS-40">
          <mxGeometry relative="1" as="geometry" />
        </mxCell>
        <mxCell id="KnkK7DIoWYK5DNCra6GS-16" value="&lt;font style=&quot;font-size: 16px;&quot;&gt;Membre&lt;/font&gt;" style="shape=umlActor;verticalLabelPosition=bottom;verticalAlign=top;html=1;outlineConnect=0;" vertex="1" parent="1">
          <mxGeometry x="21" y="407" width="30" height="60" as="geometry" />
        </mxCell>
        <mxCell id="KnkK7DIoWYK5DNCra6GS-17" value="" style="shape=umlActor;verticalLabelPosition=bottom;verticalAlign=top;html=1;outlineConnect=0;" vertex="1" parent="1">
          <mxGeometry x="19" y="235" width="30" height="60" as="geometry" />
        </mxCell>
        <mxCell id="KnkK7DIoWYK5DNCra6GS-18" style="edgeStyle=none;curved=1;rounded=0;orthogonalLoop=1;jettySize=auto;html=1;fontSize=12;startSize=8;endSize=8;exitX=0.5;exitY=0;exitDx=0;exitDy=0;exitPerimeter=0;entryX=0;entryY=1;entryDx=0;entryDy=0;entryPerimeter=0;" edge="1" parent="1" source="KnkK7DIoWYK5DNCra6GS-19" target="KnkK7DIoWYK5DNCra6GS-17">
          <mxGeometry relative="1" as="geometry">
            <mxPoint x="37" y="297" as="targetPoint" />
            <mxPoint x="-33" y="550" as="sourcePoint" />
            <Array as="points">
              <mxPoint x="-113" y="427" />
            </Array>
          </mxGeometry>
        </mxCell>
        <mxCell id="KnkK7DIoWYK5DNCra6GS-19" value="&lt;font style=&quot;font-size: 16px;&quot;&gt;Administrateur&lt;/font&gt;" style="shape=umlActor;verticalLabelPosition=bottom;verticalAlign=top;html=1;outlineConnect=0;" vertex="1" parent="1">
          <mxGeometry x="19" y="550" width="30" height="60" as="geometry" />
        </mxCell>
        <mxCell id="KnkK7DIoWYK5DNCra6GS-21" value="" style="shape=umlActor;verticalLabelPosition=bottom;verticalAlign=top;html=1;outlineConnect=0;" vertex="1" parent="1">
          <mxGeometry x="19" y="70" width="30" height="60" as="geometry" />
        </mxCell>
        <mxCell id="KnkK7DIoWYK5DNCra6GS-22" style="edgeStyle=none;curved=1;rounded=0;orthogonalLoop=1;jettySize=auto;html=1;entryX=0.5;entryY=0;entryDx=0;entryDy=0;entryPerimeter=0;fontSize=12;startSize=8;endSize=8;" edge="1" parent="1" source="KnkK7DIoWYK5DNCra6GS-21" target="KnkK7DIoWYK5DNCra6GS-17">
          <mxGeometry relative="1" as="geometry" />
        </mxCell>
        <mxCell id="KnkK7DIoWYK5DNCra6GS-23" value="Utilisateur" style="text;html=1;align=center;verticalAlign=middle;whiteSpace=wrap;rounded=0;fontSize=16;" vertex="1" parent="1">
          <mxGeometry x="45" y="298" width="60" height="30" as="geometry" />
        </mxCell>
        <mxCell id="KnkK7DIoWYK5DNCra6GS-25" style="edgeStyle=none;curved=1;rounded=0;orthogonalLoop=1;jettySize=auto;html=1;entryX=0;entryY=0;entryDx=0;entryDy=0;fontSize=12;startSize=8;endSize=8;exitX=0.75;exitY=0.1;exitDx=0;exitDy=0;exitPerimeter=0;" edge="1" parent="1" source="KnkK7DIoWYK5DNCra6GS-17" target="KnkK7DIoWYK5DNCra6GS-41">
          <mxGeometry relative="1" as="geometry" />
        </mxCell>
        <mxCell id="KnkK7DIoWYK5DNCra6GS-28" value="&lt;font style=&quot;font-size: 16px;&quot;&gt;Cas d&#39;utilisation gestion équipe&lt;/font&gt;" style="shape=umlFrame;whiteSpace=wrap;html=1;pointerEvents=0;recursiveResize=0;container=1;collapsible=0;width=279;height=36;" vertex="1" parent="1">
          <mxGeometry x="-109" y="-36" width="1250" height="826" as="geometry" />
        </mxCell>
        <mxCell id="KnkK7DIoWYK5DNCra6GS-29" value="Membre de la DECS" style="text;html=1;align=center;verticalAlign=middle;whiteSpace=wrap;rounded=0;fontSize=16;" vertex="1" parent="KnkK7DIoWYK5DNCra6GS-28">
          <mxGeometry x="51" y="160" width="160" height="30" as="geometry" />
        </mxCell>
        <mxCell id="KnkK7DIoWYK5DNCra6GS-32" value="&lt;font style=&quot;font-size: 15px;&quot;&gt;Consulter Equipe&lt;/font&gt;" style="ellipse;whiteSpace=wrap;html=1;" vertex="1" parent="KnkK7DIoWYK5DNCra6GS-28">
          <mxGeometry x="555" y="356" width="140" height="70" as="geometry" />
        </mxCell>
        <mxCell id="KnkK7DIoWYK5DNCra6GS-31" value="&lt;font style=&quot;font-size: 15px;&quot;&gt;supprimer Equipe&lt;/font&gt;" style="ellipse;whiteSpace=wrap;html=1;" vertex="1" parent="KnkK7DIoWYK5DNCra6GS-28">
          <mxGeometry x="529" y="256" width="140" height="70" as="geometry" />
        </mxCell>
        <mxCell id="KnkK7DIoWYK5DNCra6GS-30" value="&lt;font style=&quot;font-size: 15px;&quot;&gt;Se conecter&lt;/font&gt;" style="ellipse;whiteSpace=wrap;html=1;" vertex="1" parent="1">
          <mxGeometry x="830" y="380" width="140" height="70" as="geometry" />
        </mxCell>
        <mxCell id="KnkK7DIoWYK5DNCra6GS-33" value="&lt;font style=&quot;font-size: 15px;&quot;&gt;Modifier Equipe&lt;/font&gt;" style="ellipse;whiteSpace=wrap;html=1;" vertex="1" parent="1">
          <mxGeometry x="670" y="80" width="140" height="70" as="geometry" />
        </mxCell>
        <mxCell id="KnkK7DIoWYK5DNCra6GS-34" value="&lt;font style=&quot;font-size: 15px;&quot;&gt;Ajouter Equipe&lt;/font&gt;" style="ellipse;whiteSpace=wrap;html=1;" vertex="1" parent="1">
          <mxGeometry x="570" y="160" width="140" height="70" as="geometry" />
        </mxCell>
        <mxCell id="KnkK7DIoWYK5DNCra6GS-36" value="" style="endArrow=classic;html=1;rounded=0;exitX=1;exitY=0.3333333333333333;exitDx=0;exitDy=0;exitPerimeter=0;entryX=0;entryY=0.5;entryDx=0;entryDy=0;" edge="1" parent="1" source="KnkK7DIoWYK5DNCra6GS-21" target="KnkK7DIoWYK5DNCra6GS-33">
          <mxGeometry width="50" height="50" relative="1" as="geometry">
            <mxPoint x="380" y="310" as="sourcePoint" />
            <mxPoint x="430" y="260" as="targetPoint" />
          </mxGeometry>
        </mxCell>
        <mxCell id="KnkK7DIoWYK5DNCra6GS-37" value="" style="endArrow=classic;html=1;rounded=0;exitX=1;exitY=0.3333333333333333;exitDx=0;exitDy=0;exitPerimeter=0;entryX=0;entryY=0.5;entryDx=0;entryDy=0;" edge="1" parent="1" source="KnkK7DIoWYK5DNCra6GS-21" target="KnkK7DIoWYK5DNCra6GS-34">
          <mxGeometry width="50" height="50" relative="1" as="geometry">
            <mxPoint x="370" y="310" as="sourcePoint" />
            <mxPoint x="420" y="260" as="targetPoint" />
          </mxGeometry>
        </mxCell>
        <mxCell id="KnkK7DIoWYK5DNCra6GS-38" value="" style="endArrow=classic;html=1;rounded=0;exitX=0.75;exitY=0.1;exitDx=0;exitDy=0;exitPerimeter=0;entryX=0;entryY=0.5;entryDx=0;entryDy=0;" edge="1" parent="1" source="KnkK7DIoWYK5DNCra6GS-17" target="KnkK7DIoWYK5DNCra6GS-32">
          <mxGeometry width="50" height="50" relative="1" as="geometry">
            <mxPoint x="390" y="310" as="sourcePoint" />
            <mxPoint x="440" y="260" as="targetPoint" />
          </mxGeometry>
        </mxCell>
        <mxCell id="KnkK7DIoWYK5DNCra6GS-39" value="" style="endArrow=classic;html=1;rounded=0;exitX=1;exitY=0.3333333333333333;exitDx=0;exitDy=0;exitPerimeter=0;entryX=0;entryY=0.5;entryDx=0;entryDy=0;" edge="1" parent="1" source="KnkK7DIoWYK5DNCra6GS-21" target="KnkK7DIoWYK5DNCra6GS-31">
          <mxGeometry width="50" height="50" relative="1" as="geometry">
            <mxPoint x="350" y="320" as="sourcePoint" />
            <mxPoint x="400" y="270" as="targetPoint" />
          </mxGeometry>
        </mxCell>
        <mxCell id="KnkK7DIoWYK5DNCra6GS-40" value="&lt;font style=&quot;font-size: 15px;&quot;&gt;Ajouter participant à equipe&lt;/font&gt;" style="ellipse;whiteSpace=wrap;html=1;" vertex="1" parent="1">
          <mxGeometry x="480" y="467" width="140" height="70" as="geometry" />
        </mxCell>
        <mxCell id="KnkK7DIoWYK5DNCra6GS-41" value="&lt;font style=&quot;font-size: 14px;&quot;&gt;Enleverparticipant de equipe&lt;/font&gt;" style="ellipse;whiteSpace=wrap;html=1;" vertex="1" parent="1">
          <mxGeometry x="540" y="610" width="170" height="70" as="geometry" />
        </mxCell>
        <mxCell id="KnkK7DIoWYK5DNCra6GS-42" value="&lt;font style=&quot;font-size: 15px;&quot;&gt;&amp;lt;&amp;lt;include&amp;gt;&amp;gt;&lt;/font&gt;" style="html=1;verticalAlign=bottom;endArrow=open;dashed=1;endSize=8;curved=0;rounded=0;exitX=1;exitY=1;exitDx=0;exitDy=0;entryX=0.317;entryY=0.11;entryDx=0;entryDy=0;entryPerimeter=0;" edge="1" parent="1" source="KnkK7DIoWYK5DNCra6GS-34" target="KnkK7DIoWYK5DNCra6GS-30">
          <mxGeometry relative="1" as="geometry">
            <mxPoint x="570" y="280" as="sourcePoint" />
            <mxPoint x="490" y="280" as="targetPoint" />
          </mxGeometry>
        </mxCell>
        <mxCell id="KnkK7DIoWYK5DNCra6GS-43" value="&lt;font style=&quot;font-size: 15px;&quot;&gt;&amp;lt;&amp;lt;include&amp;gt;&amp;gt;&lt;/font&gt;" style="html=1;verticalAlign=bottom;endArrow=open;dashed=1;endSize=8;curved=0;rounded=0;exitX=0.798;exitY=0.919;exitDx=0;exitDy=0;exitPerimeter=0;" edge="1" parent="1" source="KnkK7DIoWYK5DNCra6GS-33" target="KnkK7DIoWYK5DNCra6GS-30">
          <mxGeometry relative="1" as="geometry">
            <mxPoint x="570" y="280" as="sourcePoint" />
            <mxPoint x="490" y="280" as="targetPoint" />
          </mxGeometry>
        </mxCell>
        <mxCell id="KnkK7DIoWYK5DNCra6GS-44" value="&lt;font style=&quot;font-size: 15px;&quot;&gt;&amp;lt;&amp;lt;include&amp;gt;&amp;gt;&lt;/font&gt;" style="html=1;verticalAlign=bottom;endArrow=open;dashed=1;endSize=8;curved=0;rounded=0;entryX=0.115;entryY=0.145;entryDx=0;entryDy=0;entryPerimeter=0;exitX=1;exitY=0.5;exitDx=0;exitDy=0;" edge="1" parent="1" source="KnkK7DIoWYK5DNCra6GS-31" target="KnkK7DIoWYK5DNCra6GS-30">
          <mxGeometry relative="1" as="geometry">
            <mxPoint x="680" y="300" as="sourcePoint" />
            <mxPoint x="600" y="300" as="targetPoint" />
          </mxGeometry>
        </mxCell>
        <mxCell id="KnkK7DIoWYK5DNCra6GS-45" value="&lt;font style=&quot;font-size: 15px;&quot;&gt;&amp;lt;&amp;lt;include&amp;gt;&amp;gt;&lt;/font&gt;" style="html=1;verticalAlign=bottom;endArrow=open;dashed=1;endSize=8;curved=0;rounded=0;exitX=1;exitY=0.5;exitDx=0;exitDy=0;entryX=0;entryY=0.5;entryDx=0;entryDy=0;" edge="1" parent="1" source="KnkK7DIoWYK5DNCra6GS-32" target="KnkK7DIoWYK5DNCra6GS-30">
          <mxGeometry relative="1" as="geometry">
            <mxPoint x="680" y="300" as="sourcePoint" />
            <mxPoint x="600" y="300" as="targetPoint" />
          </mxGeometry>
        </mxCell>
        <mxCell id="KnkK7DIoWYK5DNCra6GS-46" value="&lt;font style=&quot;font-size: 15px;&quot;&gt;&amp;lt;&amp;lt;include&amp;gt;&amp;gt;&lt;/font&gt;" style="html=1;verticalAlign=bottom;endArrow=open;dashed=1;endSize=8;curved=0;rounded=0;exitX=1;exitY=0.5;exitDx=0;exitDy=0;entryX=0;entryY=1;entryDx=0;entryDy=0;" edge="1" parent="1" source="KnkK7DIoWYK5DNCra6GS-40" target="KnkK7DIoWYK5DNCra6GS-30">
          <mxGeometry relative="1" as="geometry">
            <mxPoint x="630" y="470" as="sourcePoint" />
            <mxPoint x="550" y="470" as="targetPoint" />
          </mxGeometry>
        </mxCell>
        <mxCell id="KnkK7DIoWYK5DNCra6GS-47" value="&lt;font style=&quot;font-size: 15px;&quot;&gt;&amp;lt;&amp;lt;include&amp;gt;&amp;gt;&lt;/font&gt;" style="html=1;verticalAlign=bottom;endArrow=open;dashed=1;endSize=8;curved=0;rounded=0;exitX=1;exitY=0;exitDx=0;exitDy=0;entryX=0.5;entryY=1;entryDx=0;entryDy=0;" edge="1" parent="1" source="KnkK7DIoWYK5DNCra6GS-41" target="KnkK7DIoWYK5DNCra6GS-30">
          <mxGeometry relative="1" as="geometry">
            <mxPoint x="630" y="540" as="sourcePoint" />
            <mxPoint x="550" y="540" as="targetPoint" />
          </mxGeometry>
        </mxCell>
      </root>
    </mxGraphModel>
  </diagram>
</mxfile>
